<svg width="247" height="49" viewBox="0 0 247 49" fill="none" xmlns="http://www.w3.org/2000/svg">
<g id="Logo" clip-path="url(#clip0_3052_832)">
<path id="Vector" d="M77.2756 43.4159C76.1485 45.0911 74.5988 46.4871 72.6968 47.4643C70.7949 48.4415 68.5407 48.9999 66.0048 48.9999C62.9757 48.9999 60.3694 48.4415 58.2561 47.2549C56.1428 46.0683 54.5226 44.3931 53.3956 42.1595C52.2685 39.9258 51.7754 37.2734 51.7754 34.2022C51.7754 31.131 52.3389 28.4785 53.466 26.2449C54.5931 24.0113 56.2133 22.2663 58.397 21.0099C60.5103 19.8233 63.0462 19.1951 66.0048 19.1951C68.6111 19.1951 70.7949 19.6837 72.6968 20.6609C74.5283 21.6381 76.0076 22.9643 77.0642 24.5697C78.1209 26.2449 78.8253 28.0597 79.1775 30.2236H71.7811C71.5697 29.1765 71.2175 28.1993 70.7244 27.4315C70.2313 26.6637 69.5973 26.0355 68.752 25.6167C67.9772 25.1979 67.0614 24.9885 66.0752 24.9885H65.723C64.3846 24.9885 63.1871 25.3375 62.2009 26.0355C61.2147 26.7335 60.4398 27.7805 59.8763 29.1765C59.3127 30.5726 59.1014 32.178 59.1014 34.1324C59.1014 36.0868 59.3832 37.6922 59.9467 39.0184C60.5103 40.3446 61.2851 41.3917 62.2713 42.0897C63.2575 42.7877 64.3846 43.1367 65.723 43.1367H66.0048C67.1319 43.1367 68.0476 42.9273 68.8225 42.4387C69.5973 41.9501 70.2313 41.3218 70.7244 40.554C71.2175 39.7164 71.4993 38.8788 71.7106 37.9016H79.3184C79.0366 39.9258 78.3322 41.7407 77.2756 43.4159Z" fill="white"/>
<path id="Vector_2" d="M85.3765 47.6736C83.6859 46.7662 82.277 45.5098 81.2908 43.7648C80.3046 42.0198 79.8115 39.9956 79.8115 37.5526C79.8115 35.1095 80.3046 33.0853 81.2908 31.4101C82.277 29.7349 83.6154 28.4785 85.306 27.5711C86.9967 26.7335 89.0395 26.2449 91.2232 26.2449C93.4069 26.2449 95.3793 26.6637 97.1404 27.5711C98.9014 28.4087 100.24 29.7349 101.226 31.4101C102.212 33.0853 102.705 35.1095 102.705 37.5526C102.705 39.9956 102.212 42.0198 101.226 43.7648C100.24 45.5098 98.9014 46.7662 97.1404 47.6736C95.4498 48.5811 93.4774 48.9999 91.2232 48.9999C88.969 48.9999 87.0671 48.5811 85.306 47.6736H85.3765ZM93.6183 42.9272C94.1818 42.4386 94.6045 41.6708 94.8862 40.7634C95.168 39.856 95.3089 38.809 95.3089 37.5526C95.3089 36.2962 95.168 35.3887 94.8862 34.4813C94.6045 33.5739 94.1818 32.8759 93.6183 32.3175C93.0547 31.8289 92.2798 31.5497 91.4345 31.5497H91.1528C90.3075 31.5497 89.5326 31.8289 88.9691 32.3175C88.4055 32.8061 87.9829 33.5739 87.7011 34.4813C87.4193 35.3887 87.2784 36.4358 87.2784 37.5526C87.2784 39.3674 87.6306 40.8332 88.2646 41.95C88.8986 43.0668 89.8848 43.6252 91.2232 43.6252H91.505C92.4207 43.6252 93.1252 43.346 93.6887 42.8574L93.6183 42.9272Z" fill="white"/>
<path id="Vector_3" d="M111.017 26.8734V27.2224C111.017 27.711 110.947 28.1298 110.806 28.4788C110.665 28.8278 110.454 29.3862 110.172 30.0144C109.89 30.6426 109.679 31.1312 109.468 31.6198C109.256 32.1084 109.115 32.597 108.974 33.295L109.749 33.5044L109.89 33.0856C110.454 30.9916 111.51 29.3164 112.99 28.1996C114.469 27.013 116.371 26.4546 118.625 26.4546C119.963 26.4546 121.161 26.7338 122.218 27.2922C123.204 27.8506 124.049 28.6882 124.542 29.805C125.106 30.9218 125.317 32.3178 125.317 33.9233V48.6512H118.062V35.6683C118.062 34.6213 117.78 33.8535 117.146 33.295C116.512 32.7366 115.737 32.4574 114.751 32.4574H114.61C113.976 32.4574 113.412 32.597 112.849 32.8762C112.356 33.1554 111.933 33.5742 111.581 34.0629C111.229 34.5515 111.088 35.1797 111.088 35.8777V48.6512H103.762V27.013H110.947L111.017 26.8734Z" fill="white"/>
<path id="Vector_4" d="M140.322 42.5086C140.322 42.5086 140.393 42.5086 140.463 42.5086H140.675V48.5114C139.266 48.8604 137.927 49 136.73 49C135.18 49 133.771 48.7208 132.644 48.2322C131.517 47.7436 130.601 46.8362 129.897 45.5798C129.192 44.3234 128.84 42.5086 128.84 40.275V31.8989H125.459V26.8733H126.938C128.065 26.8733 129.263 26.8733 130.46 27.0129C131.658 27.0827 132.644 27.2223 133.349 27.4317L133.489 26.6639C131.869 26.2451 130.672 25.7565 129.826 25.0584C129.052 24.4302 128.629 23.5228 128.629 22.3362V20.312H136.166V22.6154C136.166 23.7322 136.166 24.5698 136.378 25.1282C136.589 25.6867 136.8 26.1055 137.223 26.4545C137.646 26.8035 138.35 26.9431 139.266 26.9431H140.463V31.9687H136.025V40.275C136.025 41.1126 136.166 41.7408 136.448 42.1596C136.73 42.5784 137.293 42.718 138.139 42.718C138.561 42.718 139.266 42.718 140.252 42.5784L140.322 42.5086Z" fill="white"/>
<path id="Vector_5" d="M145.393 47.6038C143.702 46.6964 142.505 45.3702 141.66 43.6252C140.814 41.95 140.392 39.9956 140.392 37.762C140.392 35.3887 140.885 33.3645 141.8 31.6195C142.716 29.8745 144.055 28.5483 145.745 27.6409C147.436 26.7335 149.408 26.2449 151.662 26.2449C153.917 26.2449 155.889 26.7335 157.509 27.6409C159.129 28.5483 160.397 29.8745 161.243 31.6195C162.088 33.3645 162.511 35.4585 162.511 37.9016V39.0184H147.577C147.577 39.9258 147.788 40.7634 148.07 41.4614C148.352 42.1594 148.845 42.7178 149.408 43.1366C150.042 43.5554 150.747 43.7648 151.522 43.7648H151.592C152.578 43.7648 153.423 43.4856 154.057 42.997C154.691 42.5084 155.114 41.95 155.255 41.252H162.651C162.37 42.8574 161.736 44.1836 160.679 45.3702C159.622 46.5568 158.284 47.4642 156.664 48.0227C155.044 48.5811 153.283 48.9301 151.31 48.9301C148.915 48.9301 146.872 48.4415 145.252 47.534L145.393 47.6038ZM155.607 35.0397C155.607 34.2719 155.396 33.5739 155.114 33.0155C154.832 32.3873 154.41 31.8987 153.846 31.5497C153.283 31.2007 152.578 30.9913 151.803 30.9913H151.592C150.394 30.9913 149.479 31.4101 148.774 32.1779C148.07 32.9457 147.718 33.9229 147.647 35.1095H155.678L155.607 35.0397Z" fill="white"/>
<path id="Vector_6" d="M171.104 26.8734V27.2224C171.104 27.711 171.034 28.1298 170.893 28.4788C170.752 28.8278 170.541 29.3862 170.259 30.0144C169.977 30.6426 169.766 31.1312 169.554 31.6198C169.343 32.1084 169.202 32.597 169.061 33.295L169.836 33.5044L169.977 33.0856C170.541 30.9916 171.597 29.3164 173.077 28.1996C174.556 27.013 176.458 26.4546 178.712 26.4546C180.05 26.4546 181.248 26.7338 182.305 27.2922C183.291 27.8506 184.136 28.6882 184.629 29.805C185.193 30.9218 185.404 32.3178 185.404 33.9233V48.6512H178.148V35.6683C178.148 34.6213 177.867 33.8535 177.233 33.295C176.599 32.7366 175.824 32.4574 174.838 32.4574H174.697C174.063 32.4574 173.499 32.597 172.936 32.8762C172.443 33.1554 172.02 33.5742 171.668 34.0629C171.316 34.5515 171.175 35.1797 171.175 35.8777V48.6512H163.849V27.013H171.034L171.104 26.8734Z" fill="white"/>
<path id="Vector_7" d="M200.408 42.5086C200.408 42.5086 200.479 42.5086 200.549 42.5086H200.761V48.5114C199.352 48.8604 198.013 49 196.816 49C195.266 49 193.857 48.7208 192.73 48.2322C191.603 47.7436 190.687 46.8362 189.983 45.5798C189.278 44.3234 188.926 42.5086 188.926 40.275V31.8989H185.545V26.8733H187.024C188.151 26.8733 189.349 26.8733 190.546 27.0129C191.744 27.0827 192.73 27.2223 193.434 27.4317L193.575 26.6639C191.955 26.2451 190.758 25.7565 189.912 25.0584C189.137 24.4302 188.715 23.5228 188.715 22.3362V20.312H196.252V22.6154C196.252 23.7322 196.252 24.5698 196.464 25.1282C196.675 25.6867 196.886 26.1055 197.309 26.4545C197.731 26.8035 198.436 26.9431 199.352 26.9431H200.549V31.9687H196.111V40.275C196.111 41.1126 196.252 41.7408 196.534 42.1596C196.816 42.5784 197.379 42.718 198.225 42.718C198.647 42.718 199.352 42.718 200.338 42.5784L200.408 42.5086Z" fill="white"/>
<path id="Vector_8" d="M206.044 47.6739C204.354 46.7665 202.945 45.5101 201.959 43.7651C200.973 42.02 200.479 39.9958 200.479 37.5528C200.479 35.1098 200.973 33.0856 201.959 31.4104C202.945 29.7351 204.283 28.4787 205.974 27.5713C207.665 26.7337 209.707 26.2451 211.891 26.2451C214.075 26.2451 216.047 26.6639 217.808 27.5713C219.569 28.4089 220.908 29.7351 221.894 31.4104C222.88 33.0856 223.373 35.1098 223.373 37.5528C223.373 39.9958 222.88 42.02 221.894 43.7651C220.908 45.5101 219.569 46.7665 217.808 47.6739C216.118 48.5813 214.145 49.0001 211.891 49.0001C209.637 49.0001 207.735 48.5813 205.974 47.6739H206.044ZM214.286 42.9275C214.85 42.4388 215.272 41.671 215.554 40.7636C215.836 39.8562 215.977 38.8092 215.977 37.5528C215.977 36.2964 215.836 35.389 215.554 34.4816C215.272 33.5742 214.85 32.8762 214.286 32.3178C213.723 31.8292 212.948 31.55 212.103 31.55H211.821C210.975 31.55 210.201 31.8292 209.637 32.3178C209.073 32.8064 208.651 33.5742 208.369 34.4816C208.087 35.389 207.946 36.436 207.946 37.5528C207.946 39.3676 208.299 40.8334 208.933 41.9502C209.567 43.0671 210.553 43.6255 211.891 43.6255H212.173C213.089 43.6255 213.793 43.3463 214.357 42.8577L214.286 42.9275Z" fill="white"/>
<path id="Vector_9" d="M229.291 47.6739C227.6 46.7665 226.191 45.5101 225.205 43.7651C224.219 42.02 223.726 39.9958 223.726 37.5528C223.726 35.1098 224.219 33.0856 225.205 31.4104C226.191 29.7351 227.529 28.4787 229.22 27.5713C230.911 26.7337 232.954 26.2451 235.137 26.2451C237.321 26.2451 239.293 26.6639 241.054 27.5713C242.816 28.4089 244.154 29.7351 245.14 31.4104C246.126 33.0856 246.619 35.1098 246.619 37.5528C246.619 39.9958 246.126 42.02 245.14 43.7651C244.154 45.5101 242.816 46.7665 241.054 47.6739C239.364 48.5813 237.391 49.0001 235.137 49.0001C232.883 49.0001 230.981 48.5813 229.22 47.6739H229.291ZM237.532 42.9275C238.096 42.4388 238.519 41.671 238.8 40.7636C239.082 39.8562 239.223 38.8092 239.223 37.5528C239.223 36.2964 239.082 35.389 238.8 34.4816C238.519 33.5742 238.096 32.8762 237.532 32.3178C236.969 31.8292 236.194 31.55 235.349 31.55H235.067C234.222 31.55 233.447 31.8292 232.883 32.3178C232.32 32.8064 231.897 33.5742 231.615 34.4816C231.333 35.389 231.192 36.436 231.192 37.5528C231.192 39.3676 231.545 40.8334 232.179 41.9502C232.813 43.0671 233.799 43.6255 235.137 43.6255H235.419C236.335 43.6255 237.039 43.3463 237.603 42.8577L237.532 42.9275Z" fill="white"/>
<path id="Vector_10" d="M8.1 31.1311C8.38177 30.5029 8.87487 29.8747 9.36796 29.2465C10.0724 28.4787 10.9881 27.8505 11.9743 27.5015C13.8058 26.7337 15.7782 26.7337 17.6097 27.5015C20.4274 28.6881 22.1885 31.3405 22.1885 34.4117L29.585 34.5513C29.585 31.6197 28.8101 28.8277 27.2604 26.3847C25.6402 23.8718 23.3156 21.9174 20.4979 20.8006C20.4979 20.8006 20.4274 20.8006 20.357 20.8006C23.2451 18.9858 26.1333 17.3106 28.6692 15.8448C29.6554 15.2864 30.5712 14.728 31.4869 14.1696L27.683 7.88751C26.7673 8.44592 25.8515 8.93452 24.8653 9.49293C20.9205 11.7963 16.8349 14.1696 13.1014 16.6824C15.0034 11.4473 16.9758 6.3519 18.455 3.00147L11.6221 0.139648C8.66354 7.11971 3.59168 20.8704 1.05575 28.8277C-1.90284 36.2265 1.68973 44.6724 9.08619 47.7436C10.9177 48.5114 12.8196 48.8605 14.792 48.8605C15.8487 48.8605 16.9053 48.7208 17.8915 48.5114C20.7797 47.8832 23.386 46.4174 25.4289 44.3234L20.0752 39.228C17.962 41.3918 14.7216 42.0898 11.9039 40.9032C10.0724 40.1354 8.66354 38.7394 7.88867 36.9246C7.1138 35.1097 7.1138 33.0855 7.88867 31.3405C7.88867 31.2707 7.95911 31.1311 8.02956 31.0613L8.1 31.1311Z" fill="white"/>
</g>
<defs>
<clipPath id="clip0_3052_832">
<rect width="246.69" height="49" fill="white"/>
</clipPath>
</defs>
</svg>
