<svg xmlns="http://www.w3.org/2000/svg" viewBox="0 0 600.52 275.4"><defs><linearGradient id="linear-gradient" x1="274.9" y1="91.73" x2="-7.25" y2="116.42" gradientUnits="userSpaceOnUse"><stop offset=".21" stop-color="#7ab800"/><stop offset=".32" stop-color="#53a411"/><stop offset=".44" stop-color="#2f9120"/><stop offset=".56" stop-color="#15842b"/><stop offset=".66" stop-color="#057c32"/><stop offset=".74" stop-color="#007934"/></linearGradient><linearGradient id="linear-gradient-2" x1="261.18" y1="111.54" x2="600.52" y2="111.54" gradientUnits="userSpaceOnUse"><stop offset="0" stop-color="#7ab800"/><stop offset=".1" stop-color="#5faa0c"/><stop offset=".25" stop-color="#3d981a"/><stop offset=".4" stop-color="#228b25"/><stop offset=".55" stop-color="#0f812e"/><stop offset=".71" stop-color="#047b32"/><stop offset=".88" stop-color="#007934"/></linearGradient><radialGradient id="radial-gradient" cx="145.56" cy="65.77" r="18.33" gradientTransform="matrix(.89 0 0 .96 43.7 44.42)" gradientUnits="userSpaceOnUse"><stop offset=".01" stop-color="#fff"/><stop offset=".11" stop-color="#fdfefb"/><stop offset=".21" stop-color="#f7fbf0"/><stop offset=".3" stop-color="#eef6de"/><stop offset=".39" stop-color="#e0efc4"/><stop offset=".44" stop-color="#d7eab2"/><stop offset=".51" stop-color="#d0e6a5"/><stop offset=".63" stop-color="#bfdd84"/><stop offset=".79" stop-color="#a3ce4e"/><stop offset=".99" stop-color="#7db905"/><stop offset="1" stop-color="#7ab800"/></radialGradient><style>.cls-1{fill:#007934}</style></defs><g id="Laag_2" data-name="Laag 2"><g id="Layer_1" data-name="Layer 1"><path class="cls-1" d="M87.58 212.61q-10.8 0-17.28-4.64-7.47-5.31-7.47-15.28 0-11.61 15-19.59 14.43-7.64 40.84-11v-9q0-8.31-4.32-12t-14.78-3.65c-7.19 0-17.3 3.39-21.06 5.5l-.35-7.49q9.63-5.64 24.07-5.64c11.41 0 19.69 2 24.9 6.14s7.81 10.63 7.81 19.59V194c0 6.31 3.43 10.57 10.29 10.57l-.16 7.2h-25.62v-12.6q-11.79 13.44-31.87 13.44zm31-43.83q-22.41 3-30.88 8.14-7.81 4.65-7.81 14.27a11.46 11.46 0 004.41 9.38 16.08 16.08 0 0010.53 3.57 24.21 24.21 0 0015.95-5.8q7.79-6.48 7.8-16.11z"/><path class="cls-1" d="M161 129.44h17.1v67.24c0 3 .75 5.06 2.24 6.23s4.12 1.73 7.88 1.73h.17v7.15h-43.62v-7.15h6.28q5.47 0 7.71-1.73T161 196z"/><path class="cls-1" d="M296.49 211.79h-34.87V155.5q0-8.46-4.9-13.37c-3.26-3.25-7.61-4.89-13-4.89a21.32 21.32 0 00-16.6 7.46q-7 8-7 21.43v45.66H188v-7.15h6.34q8.48 0 8.47-8.14v-67.06h17.27v14.94q10.35-17.59 28.54-17.6 14 0 22.13 9t8.09 22.76v38q0 8.15 8.48 8.14h9.13"/><path class="cls-1" d="M294.42 204.53q5.15 0 7.47-1.83c1.54-1.21 2.32-3.54 2.32-7V84.61l16.6-.16v57.11h.33q7.82-13.11 25.08-13.12A33.16 33.16 0 01372 139.9q10.95 12.12 11 31.87 0 17.78-9.64 29.22-10.12 11.79-27.22 11.79-18.93 0-24.91-15.77h-.33v14.78h-26.48m26.39-41.18q0 33.7 21.92 33.7 21.75 0 21.74-33.7 0-33.54-21.74-33.53-21.91 0-21.92 33.53zm77.8-29.97q10.36-11.85 28.14-11.86t28.39 12.11q10.13 11.63 10.12 29.56 0 18.09-10.12 29.55-10.65 12.1-28.39 12.12T398.36 200q-10.14-11.46-10.13-29.55 0-17.92 10.38-29.81zm28.14 64.83q20.42 0 20.42-35t-20.42-34.87q-20.43 0-20.43 34.87 0 35.01 20.43 35z"/><path d="M181.48 105.8c0-8-11.18-26.49-11.85-26.6-.83.11-11.85 18.57-11.85 26.6s5.31 14.55 11.85 14.55 11.85-6.51 11.85-14.55z" fill="url(#radial-gradient)"/><path d="M261.08 18.71c-27.8-2.26-107 1.05-163.11 48.51s61.19-62 170.55-55.95c-2.92 2.67-4.61 4.61-7.44 7.44z" fill="#fff"/><path d="M93.15 70.64a1.9 1.9 0 01-.21.19c-36 31.86-58 67.38-63.45 79.69v-21.08H0v7h5.08a7 7 0 017.14 6.79V196c0 3.34-.77 5.6-2.33 6.81s-4.15 1.83-7.8 1.83h-1v7.15h40.85v-7.15h-1.66a24.68 24.68 0 01-7-.66 4.8 4.8 0 01-3.82-5v-17.75A76.11 76.11 0 0135 152.51a47.34 47.34 0 013.38-6.8s5.71-10.58 16.7-11h.33a9.13 9.13 0 00-4.48 8.12 9.37 9.37 0 002.91 6.93 10.2 10.2 0 007.55 2.87q11.3 0 11.29-12.11a12.7 12.7 0 00-4.35-9.88 15.44 15.44 0 00-10.71-3.9 26.87 26.87 0 00-9.43 1.66c19.41-27.75 34-43.28 55.76-60.84 17.09-3.81 47.59 17.42 72.77 4 34.19-22.55 44.94-40.25 84.44-52.92 0 0-76.11-6.44-154.88 47.08 46-36.14 103.83-53.31 161.6-54.64-36.91 2.09-72.05-23.46-114.68-3.36-41.38 19.51-26.74 31.4-57.35 60.43" fill="url(#linear-gradient)"/><path d="M570.77 157.3L548.52 212H543l-18.69-55.08-26.29 55.06h-5.47C473.06 108.53 378.31 21.76 263.31 18.79c-.72 0-1.42-.07-2.13-.1 2.32-2.45 4.67-5 7.06-7.56C451.49 25.84 497.92 155 504.87 177.87l15.4-31.53-2-4.6q-2.15-5.33-6.62-5.33H509v-7h20.59l20 59.59 13.36-33.82s6-15.06 10.73-20.07 9-6.75 15-6.75a12.23 12.23 0 018.46 3.08 10.05 10.05 0 013.44 7.81q0 9.58-8.92 9.57a8.08 8.08 0 01-6-2.27 7.43 7.43 0 01-2.3-5.48 7.23 7.23 0 013.54-6.41h-.25c-7.84.34-15.65 22.1-15.88 22.64z" fill="url(#linear-gradient-2)"/><path d="M320.74 105.26V84.17H292v7h5.08a7 7 0 017.14 6.8v52.8" fill="#1e803f"/><path d="M2.52 250.15c0-.57.06-1.27.06-1.89 1.82 0 4.25.05 6.27.05s4.15-.05 5.92-.05v1.89l-4 .13c-.1 0-.15 0-.15.16l-.1 22.49 4.3.12v1.93H2.75c0-.61 0-1.27.05-1.93l3.64-.12c.15 0 .2 0 .2-.16v-22.49zM37.55 273c.15 0 .2-.08.2-.16v-22.61l-3.7-.08a12.48 12.48 0 01.05-1.93h7.29c5.77 7 12.55 15.25 18.12 22.2h.25c0-6.74-.1-13.48-.2-20.19H54.8c0-.65.05-1.31.05-1.93h11.14c.05.62 0 1.32 0 1.89l-3.09.12c-.1 0-.15.05-.15.17l-.15 24.42a8.59 8.59 0 01-2.69.45c-5.26-5.88-12.24-14.1-18.82-22.16h-.3c0 6.62 0 13.24-.06 19.86l5.06.08v1.89H34.25c0-.61 0-1.31.06-1.89zm58.95-.07c.15 0 .2-.08.2-.12v-22.49a63 63 0 00-6.58.16c-1 0-1.16.33-1.26.78l-.81 4c-.92 0-1.93-.12-2.84-.2.2-2.22.31-4.53.51-6.75 1 0 2.58.05 4.65.05h17.11c2.08-.05 3.29-.05 4.35-.05.21 2.18.31 4.48.41 6.7-.81.09-1.82.17-2.83.25l-.77-4c-.1-.45-.3-.7-1.26-.78-1.32-.08-2.23-.12-6.63-.12l-.1 22.61 4.66.12c0 .62-.06 1.32-.06 1.93h-12.9c0-.61 0-1.31.05-1.93zm38.71.07q.15 0 .15-.12v-22.6l-3.69-.09c0-.61 0-1.31.05-1.93 1.77 0 3.85.05 5.82.05l11.19-.05h4.4c.15 2 .35 4.15.45 6.21-.81.08-1.77.21-2.68.29l-.81-3.58c-.1-.41-.35-.66-1.16-.74-1.32-.08-4.71-.21-8.05-.21-.46 0-1.22.05-1.47.05v10.11c2.84 0 5.22 0 7.9-.08.91 0 1.11-.29 1.21-.82l.26-2h2.58c-.05 1.24-.11 2.59-.11 3.91v3.78c-.8 0-1.76.08-2.63 0l-.15-2.14c0-.57-.4-.78-1.21-.78h-7.85l-.05 9.87c0 .7.1.82 2.83.82a64.85 64.85 0 007.85-.29 1.2 1.2 0 00.91-.82l1.62-3.74c.91.12 1.82.29 2.63.41-.55 2.14-1.16 4.32-1.77 6.46h-21.74c0-.62 0-1.32.05-1.94zm40.13-22.81v-1.88c2.83-.05 6.43-.09 9.77-.09a28.46 28.46 0 016.93.62c3.34.78 6.18 3.29 6.18 6.21 0 3.61-3 6.16-6.89 7.39v.21c2.43.86 3.7 3.21 6.23 7.2 1.72 2.63 2.18 3 2.78 3l3.14.12c0 .62-.05 1.27-.1 1.93h-6.63c-1.77-1.89-4.81-7.48-6.43-9.53-1.16-1.4-2.23-1.89-4.71-1.89a25.82 25.82 0 00-2.93.08v9.29l4.25.12v1.93h-11.59v-1.93l3.19-.12c.15 0 .25 0 .25-.12v-22.45zm7.44 11.39a18.66 18.66 0 002.68.08c6.38 0 8.66-3.29 8.66-5.75 0-3.86-3.39-5.8-8.35-5.8a10.83 10.83 0 00-2.89.21zM223.87 273c.15 0 .2-.08.2-.16v-22.61l-3.69-.08a12.48 12.48 0 01.05-1.93h7.29c5.77 7 12.55 15.25 18.12 22.2h.25c-.05-6.74-.1-13.48-.2-20.19h-4.76c0-.65.05-1.31.05-1.93h11.13c.06.62 0 1.32 0 1.89l-3.08.12c-.1 0-.16.05-.16.17l-.15 24.42a8.52 8.52 0 01-2.68.45c-5.26-5.88-12.25-14.1-18.83-22.16h-.3c0 6.62 0 13.24-.05 19.86l5.06.08c0 .58-.05 1.32-.05 1.89h-11.49v-1.89zm47.92 0a.42.42 0 00.26-.2c3.54-7.32 8.24-17.52 11.69-24.88h2.78c3.39 7.4 7.8 17.68 11.08 25.08l3.09.12c0 .62 0 1.32-.05 1.89H289.2c0-.61.05-1.27.05-1.89l3.95-.12a.13.13 0 00.1-.2c-.81-1.9-1.77-4.2-2.58-5.92-.05-.17-.15-.21-.35-.21h-12.1c-.86 2-1.92 4.36-2.68 6.25l4.55.12c0 .62 0 1.28-.05 1.89h-11.18v-1.89zm12.76-20.52c-1.72 3.75-3.7 8.35-5.37 12-.1.17-.05.25.1.25h10.63c-1.57-3.78-3.54-8.43-5.16-12.26zm41.14 20.45c.15 0 .2-.08.2-.12v-22.49a62.83 62.83 0 00-6.58.16c-1 0-1.16.33-1.26.78l-.81 4c-.91 0-1.93-.12-2.84-.2.21-2.22.31-4.53.51-6.75 1 0 2.58.05 4.65.05h17.11c2.08-.05 3.29-.05 4.36-.05.2 2.18.3 4.48.4 6.7-.81.09-1.82.17-2.84.25l-.76-4c-.09-.45-.3-.7-1.26-.78-1.32-.08-2.23-.12-6.63-.12l-.1 22.61 4.65.12c0 .62-.05 1.32-.05 1.93h-12.9v-1.93zm34.86-22.78c0-.57.05-1.27.05-1.89 1.83 0 4.25.05 6.28.05s4.15-.05 5.92-.05c0 .62-.05 1.32-.05 1.89l-4 .13c-.1 0-.15 0-.15.16l-.1 22.49 4.3.12c0 .62 0 1.32-.05 1.93h-12.08c0-.61 0-1.27.05-1.93l3.65-.12c.15 0 .2 0 .2-.16v-22.49zm36.03 21.79a12.48 12.48 0 01-4.5-10.11 13.54 13.54 0 017-11.68 19.12 19.12 0 019.56-2.3 16.93 16.93 0 018.5 2.06 12.5 12.5 0 016.18 10.89 14.17 14.17 0 01-5.27 11.26c-2.68 2.1-6 3.34-11 3.34a16.15 16.15 0 01-10.47-3.46zm18.78-1.15a11.89 11.89 0 003.65-9.13c0-3.78-1.17-7-3.6-9.25a10.51 10.51 0 00-7.34-2.5 12.06 12.06 0 00-7.18 2.14 11.57 11.57 0 00-4.46 9.53c0 4.07 1.06 6.91 3.75 9.21a11.34 11.34 0 007.64 2.55 11 11 0 007.54-2.55zm31.02 2.21c.15 0 .2-.08.2-.16v-22.61l-3.69-.08a12.48 12.48 0 01.05-1.93h7.29c5.77 7 12.55 15.25 18.12 22.2h.25c-.05-6.74-.1-13.48-.2-20.19h-4.76c0-.65.05-1.31.05-1.93h11.16c.06.62 0 1.32 0 1.89l-3.08.12c-.1 0-.15.05-.15.17l-.16 24.42a8.52 8.52 0 01-2.68.45c-5.26-5.88-12.25-14.1-18.83-22.16h-.3c0 6.62 0 13.24-.05 19.86l5.06.08c0 .58-.05 1.32-.05 1.89h-11.52c0-.61 0-1.31.05-1.89zm47.92 0a.42.42 0 00.26-.2c3.54-7.32 8.24-17.52 11.69-24.88h2.78c3.39 7.4 7.8 17.68 11.09 25.08l3.08.12c0 .62 0 1.32-.05 1.89h-11.44c0-.61.05-1.27.05-1.89l4-.12a.13.13 0 00.1-.2c-.81-1.9-1.77-4.2-2.58-5.92-.05-.17-.15-.21-.35-.21h-12.1c-.86 2-1.92 4.36-2.68 6.25l4.55.12v1.89h-11.18c0-.65 0-1.27.05-1.89zm12.76-20.52c-1.72 3.75-3.7 8.35-5.37 12-.1.17-.05.25.1.25h10.63c-1.57-3.78-3.54-8.43-5.16-12.26zm33.94-2.29a11.81 11.81 0 010-1.88h12.35c0 .61-.05 1.31-.1 1.92l-4.41.09c-.1 0-.1 0-.1.16l-.15 21.71c0 .74 0 .86 2.18.86a65.9 65.9 0 008.05-.24 1.23 1.23 0 00.91-.87l1.82-4.31c1 .12 1.87.32 2.68.49-.51 2-1.32 4.73-2 6.91h-21.39c0-.62.05-1.32.1-1.94l3.44-.12c.15 0 .2 0 .2-.16v-22.49z" fill="#7ab800"/></g></g></svg>